# xmcd
#
# Track frame offsets:
#	150
#	14520
#	26055
#	41920
#	60080
#	71962
#	91330
#	106937
#	121252
#	134142
#	156235
#	172420
#	186517
#	199807
#	212797
#
# Disc length: 3117 seconds
#
# Revision: 1
# Processed by: cddbd v1.5.2PL0 Copyright (c) Steve Scherf et al.
# Submitted via: audiograbber 1.83.01
#
DISCID=e80c2b0f
DTITLE=Hillbillies - ... for the radio
DYEAR=1993
DGENRE=Country
TTITLE0=Twist And Shout
TTITLE1=Walkin´, Talkin´, Cryin´
TTITLE2=Fishin In The Dark
TTITLE3=Midnight Angel
TTITLE4=Bed Of Roses
TTITLE5=Lookin For Love
TTITLE6=Stuck On You
TTITLE7=Thank Good For The Radio
TTITLE8=Pick Me Up
TTITLE9=Freunde
TTITLE10=Daddy´s Hands
TTITLE11=Coalminers Daughter
TTITLE12=Lovin On The Side
TTITLE13=Happy Birthday
TTITLE14=S´schwäbische Eisabähnle
EXTD=
EXTT0=
EXTT1=
EXTT2=
EXTT3=
EXTT4=
EXTT5=
EXTT6=
EXTT7=
EXTT8=
EXTT9=
EXTT10=
EXTT11=
EXTT12=
EXTT13=
EXTT14=
PLAYORDER=
